<mxfile host="app.diagrams.net" modified="2023-09-29T17:51:49.348Z" agent="Mozilla/5.0 (Windows NT 10.0; Win64; x64) AppleWebKit/537.36 (KHTML, like Gecko) Chrome/116.0.0.0 Safari/537.36" etag="A4YVQI5zoc7bL1wfRolM" version="22.0.0" type="device">
  <diagram name="Страница — 1" id="kCEqpjnj2KIzC4ItJglU">
    <mxGraphModel dx="1735" dy="1137" grid="1" gridSize="10" guides="1" tooltips="1" connect="1" arrows="1" fold="1" page="1" pageScale="1" pageWidth="827" pageHeight="1169" math="0" shadow="0">
      <root>
        <mxCell id="0" />
        <mxCell id="1" parent="0" />
        <mxCell id="VzTdKDMbOHJAsZP60sB9-20" style="edgeStyle=orthogonalEdgeStyle;rounded=0;orthogonalLoop=1;jettySize=auto;html=1;exitX=0.5;exitY=1;exitDx=0;exitDy=0;entryX=0.5;entryY=0;entryDx=0;entryDy=0;" edge="1" parent="1" source="VzTdKDMbOHJAsZP60sB9-1" target="VzTdKDMbOHJAsZP60sB9-3">
          <mxGeometry relative="1" as="geometry" />
        </mxCell>
        <mxCell id="VzTdKDMbOHJAsZP60sB9-1" value="start" style="rounded=1;whiteSpace=wrap;html=1;" vertex="1" parent="1">
          <mxGeometry x="85" y="40" width="120" height="60" as="geometry" />
        </mxCell>
        <mxCell id="VzTdKDMbOHJAsZP60sB9-2" value="end" style="rounded=1;whiteSpace=wrap;html=1;" vertex="1" parent="1">
          <mxGeometry x="470" y="320" width="120" height="60" as="geometry" />
        </mxCell>
        <mxCell id="VzTdKDMbOHJAsZP60sB9-19" style="edgeStyle=orthogonalEdgeStyle;rounded=0;orthogonalLoop=1;jettySize=auto;html=1;exitX=0.5;exitY=1;exitDx=0;exitDy=0;entryX=0.5;entryY=0;entryDx=0;entryDy=0;" edge="1" parent="1" source="VzTdKDMbOHJAsZP60sB9-3" target="VzTdKDMbOHJAsZP60sB9-4">
          <mxGeometry relative="1" as="geometry" />
        </mxCell>
        <mxCell id="VzTdKDMbOHJAsZP60sB9-3" value="array[size]" style="shape=parallelogram;perimeter=parallelogramPerimeter;whiteSpace=wrap;html=1;fixedSize=1;" vertex="1" parent="1">
          <mxGeometry x="85" y="130" width="120" height="60" as="geometry" />
        </mxCell>
        <mxCell id="VzTdKDMbOHJAsZP60sB9-18" style="edgeStyle=orthogonalEdgeStyle;rounded=0;orthogonalLoop=1;jettySize=auto;html=1;exitX=0.5;exitY=1;exitDx=0;exitDy=0;entryX=0.5;entryY=0;entryDx=0;entryDy=0;" edge="1" parent="1" source="VzTdKDMbOHJAsZP60sB9-4" target="VzTdKDMbOHJAsZP60sB9-5">
          <mxGeometry relative="1" as="geometry" />
        </mxCell>
        <mxCell id="VzTdKDMbOHJAsZP60sB9-4" value="result = []&lt;br&gt;i = 0" style="rounded=0;whiteSpace=wrap;html=1;" vertex="1" parent="1">
          <mxGeometry x="85" y="220" width="120" height="60" as="geometry" />
        </mxCell>
        <mxCell id="VzTdKDMbOHJAsZP60sB9-10" value="true" style="edgeStyle=orthogonalEdgeStyle;rounded=0;orthogonalLoop=1;jettySize=auto;html=1;exitX=0.5;exitY=1;exitDx=0;exitDy=0;entryX=0.5;entryY=0;entryDx=0;entryDy=0;" edge="1" parent="1" source="VzTdKDMbOHJAsZP60sB9-5" target="VzTdKDMbOHJAsZP60sB9-9">
          <mxGeometry relative="1" as="geometry" />
        </mxCell>
        <mxCell id="VzTdKDMbOHJAsZP60sB9-22" style="edgeStyle=orthogonalEdgeStyle;rounded=0;orthogonalLoop=1;jettySize=auto;html=1;exitX=1;exitY=0.5;exitDx=0;exitDy=0;entryX=0;entryY=0.5;entryDx=0;entryDy=0;" edge="1" parent="1" source="VzTdKDMbOHJAsZP60sB9-5" target="VzTdKDMbOHJAsZP60sB9-21">
          <mxGeometry relative="1" as="geometry" />
        </mxCell>
        <mxCell id="VzTdKDMbOHJAsZP60sB9-24" value="false" style="edgeLabel;html=1;align=center;verticalAlign=middle;resizable=0;points=[];" vertex="1" connectable="0" parent="VzTdKDMbOHJAsZP60sB9-22">
          <mxGeometry x="-0.2" y="2" relative="1" as="geometry">
            <mxPoint as="offset" />
          </mxGeometry>
        </mxCell>
        <mxCell id="VzTdKDMbOHJAsZP60sB9-5" value="i &amp;lt; size" style="rhombus;whiteSpace=wrap;html=1;" vertex="1" parent="1">
          <mxGeometry x="60" y="310" width="170" height="80" as="geometry" />
        </mxCell>
        <mxCell id="VzTdKDMbOHJAsZP60sB9-15" style="edgeStyle=orthogonalEdgeStyle;rounded=0;orthogonalLoop=1;jettySize=auto;html=1;exitX=0.5;exitY=1;exitDx=0;exitDy=0;entryX=0;entryY=0.5;entryDx=0;entryDy=0;" edge="1" parent="1" source="VzTdKDMbOHJAsZP60sB9-6" target="VzTdKDMbOHJAsZP60sB9-5">
          <mxGeometry relative="1" as="geometry" />
        </mxCell>
        <mxCell id="VzTdKDMbOHJAsZP60sB9-6" value="i++" style="rounded=0;whiteSpace=wrap;html=1;" vertex="1" parent="1">
          <mxGeometry x="85" y="750" width="120" height="60" as="geometry" />
        </mxCell>
        <mxCell id="VzTdKDMbOHJAsZP60sB9-13" value="true" style="edgeStyle=orthogonalEdgeStyle;rounded=0;orthogonalLoop=1;jettySize=auto;html=1;exitX=0.5;exitY=1;exitDx=0;exitDy=0;entryX=0.5;entryY=0;entryDx=0;entryDy=0;" edge="1" parent="1" source="VzTdKDMbOHJAsZP60sB9-8" target="VzTdKDMbOHJAsZP60sB9-12">
          <mxGeometry relative="1" as="geometry" />
        </mxCell>
        <mxCell id="VzTdKDMbOHJAsZP60sB9-16" style="edgeStyle=orthogonalEdgeStyle;rounded=0;orthogonalLoop=1;jettySize=auto;html=1;exitX=1;exitY=0.5;exitDx=0;exitDy=0;entryX=1;entryY=0.5;entryDx=0;entryDy=0;" edge="1" parent="1" source="VzTdKDMbOHJAsZP60sB9-8" target="VzTdKDMbOHJAsZP60sB9-6">
          <mxGeometry relative="1" as="geometry" />
        </mxCell>
        <mxCell id="VzTdKDMbOHJAsZP60sB9-17" value="false" style="edgeLabel;html=1;align=center;verticalAlign=middle;resizable=0;points=[];" vertex="1" connectable="0" parent="VzTdKDMbOHJAsZP60sB9-16">
          <mxGeometry x="-0.6073" y="-2" relative="1" as="geometry">
            <mxPoint as="offset" />
          </mxGeometry>
        </mxCell>
        <mxCell id="VzTdKDMbOHJAsZP60sB9-8" value="len &amp;gt;= 3" style="rhombus;whiteSpace=wrap;html=1;" vertex="1" parent="1">
          <mxGeometry x="60" y="530" width="170" height="80" as="geometry" />
        </mxCell>
        <mxCell id="VzTdKDMbOHJAsZP60sB9-11" style="edgeStyle=orthogonalEdgeStyle;rounded=0;orthogonalLoop=1;jettySize=auto;html=1;exitX=0.5;exitY=1;exitDx=0;exitDy=0;entryX=0.5;entryY=0;entryDx=0;entryDy=0;" edge="1" parent="1" source="VzTdKDMbOHJAsZP60sB9-9" target="VzTdKDMbOHJAsZP60sB9-8">
          <mxGeometry relative="1" as="geometry" />
        </mxCell>
        <mxCell id="VzTdKDMbOHJAsZP60sB9-9" value="str = array[i]&lt;br&gt;len = lenght(str)" style="rounded=0;whiteSpace=wrap;html=1;" vertex="1" parent="1">
          <mxGeometry x="85" y="440" width="120" height="60" as="geometry" />
        </mxCell>
        <mxCell id="VzTdKDMbOHJAsZP60sB9-14" style="edgeStyle=orthogonalEdgeStyle;rounded=0;orthogonalLoop=1;jettySize=auto;html=1;exitX=0.5;exitY=1;exitDx=0;exitDy=0;entryX=0.5;entryY=0;entryDx=0;entryDy=0;" edge="1" parent="1" source="VzTdKDMbOHJAsZP60sB9-12" target="VzTdKDMbOHJAsZP60sB9-6">
          <mxGeometry relative="1" as="geometry" />
        </mxCell>
        <mxCell id="VzTdKDMbOHJAsZP60sB9-12" value="result.push(len)" style="rounded=0;whiteSpace=wrap;html=1;" vertex="1" parent="1">
          <mxGeometry x="85" y="650" width="120" height="60" as="geometry" />
        </mxCell>
        <mxCell id="VzTdKDMbOHJAsZP60sB9-23" style="edgeStyle=orthogonalEdgeStyle;rounded=0;orthogonalLoop=1;jettySize=auto;html=1;entryX=0;entryY=0.5;entryDx=0;entryDy=0;" edge="1" parent="1" source="VzTdKDMbOHJAsZP60sB9-21" target="VzTdKDMbOHJAsZP60sB9-2">
          <mxGeometry relative="1" as="geometry" />
        </mxCell>
        <mxCell id="VzTdKDMbOHJAsZP60sB9-21" value="result" style="shape=document;whiteSpace=wrap;html=1;boundedLbl=1;" vertex="1" parent="1">
          <mxGeometry x="300" y="310" width="120" height="80" as="geometry" />
        </mxCell>
      </root>
    </mxGraphModel>
  </diagram>
</mxfile>
